<svg width="151" height="39" fill="none" xmlns="http://www.w3.org/2000/svg"><g clip-path="url(#a)"><path d="M63.78 29.286h-4.928L51.839 9.429h3.633l5.605 16.364h.563L67.442 9.43h3.577l-7.238 19.857zm16.623-10.28l9.126 10.28h-4.45l-7.436-8.506h-.845v8.506h-3.38V9.429h3.38v8.084h.817l7.041-8.084h4.168l-8.42 9.576zm17.165 10.28V9.429h7.041c1.352 0 2.572.291 3.662.873 1.107.564 1.971 1.352 2.591 2.366.619 1.014.929 2.169.929 3.465 0 1.276-.31 2.431-.929 3.464-.62 1.014-1.484 1.812-2.591 2.394-1.09.563-2.31.845-3.662.845h-3.661v6.45h-3.38zm7.041-9.548c1.108 0 2-.329 2.676-.986.694-.676 1.042-1.55 1.042-2.62s-.348-1.934-1.042-2.59c-.676-.677-1.568-1.015-2.676-1.015h-3.661v7.21h3.661zm13.11 9.548h-3.239V9.429h3.239v19.857zm9.77-14.928c1.878 0 3.352.592 4.422 1.774 1.089 1.165 1.634 2.808 1.634 4.93v8.224h-2.394l-.676-2.31c-.413.695-1.024 1.305-1.831 1.831-.807.507-1.765.76-2.873.76-.976 0-1.859-.197-2.647-.591a4.408 4.408 0 01-1.803-1.662c-.432-.713-.648-1.52-.648-2.422 0-1.39.545-2.497 1.634-3.323 1.108-.845 2.713-1.268 4.816-1.268h3.155c-.076-.976-.376-1.746-.902-2.31-.507-.582-1.192-.873-2.056-.873-.695 0-1.295.17-1.802.507-.507.338-.883.751-1.127 1.24l-2.986-.507c.357-1.24 1.09-2.216 2.197-2.93 1.127-.713 2.423-1.07 3.887-1.07zm-.957 12.477c1.126 0 2.037-.366 2.732-1.098.694-.732 1.042-1.7 1.042-2.901h-3.07c-2.197 0-3.296.638-3.296 1.915 0 .639.235 1.145.705 1.521.469.376 1.098.563 1.887.563zM146.93 14.64h3.295l-5.999 16.477c-.507 1.389-1.164 2.394-1.972 3.013-.788.62-1.849.93-3.182.93h-2.225l-.282-2.958h2.732c.544 0 .958-.122 1.239-.366.301-.225.554-.629.761-1.211l.169-.45-6.507-15.435h3.465l4.309 10.562h.451l3.746-10.562z" fill="#fff"/><path d="M20.319 0C29.133 0 33.54 0 36.27 2.73 39 5.46 39 9.867 39 18.681v1.638c0 8.814 0 13.221-2.73 15.951C33.54 39 29.133 39 20.319 39h-1.638C9.867 39 5.46 39 2.73 36.27 0 33.54 0 29.133 0 20.32v-1.64C0 9.866 0 5.46 2.73 2.73 5.46 0 9.867 0 18.681 0h1.638z" fill="#07F"/><path d="M.117 10.96C0 13.064 0 15.6 0 18.68v1.638c0 2.34 0 4.33.039 6.084C5.148 28.9 12.012 30.42 19.5 30.42c7.488 0 14.352-1.52 19.461-4.017C39 24.648 39 22.62 39 20.32v-1.638c0-3.08 0-5.616-.117-7.76H.117v.038z" fill="#0009B4"/><circle cx="27.105" cy="19.695" stroke="#fff" stroke-width="3.897" r="3.705"/><path d="M16.38 24.18L7.8 15.6m8.58 0L7.8 24.18" stroke="#fff" stroke-width="3.897"/></g><defs><clipPath id="a"><path fill="#fff" d="M0 0h150.93v39H0z"/></clipPath></defs></svg>